<?xml version="1.0" encoding="UTF-8" standalone="no"?>
<svg
   xmlns:dc="http://purl.org/dc/elements/1.1/"
   xmlns:cc="http://creativecommons.org/ns#"
   xmlns:rdf="http://www.w3.org/1999/02/22-rdf-syntax-ns#"
   xmlns:svg="http://www.w3.org/2000/svg"
   xmlns="http://www.w3.org/2000/svg"
   xmlns:xlink="http://www.w3.org/1999/xlink"
   xmlns:sodipodi="http://sodipodi.sourceforge.net/DTD/sodipodi-0.dtd"
   xmlns:inkscape="http://www.inkscape.org/namespaces/inkscape"
   class=""
   width="1200"
   height="1200"
   version="1.1"
   viewBox="0 0 1200 1200"
   xml:space="preserve"
   id="svg919"
   sodipodi:docname="Logo-With-Text.svg"
   inkscape:version="0.92.4 (5da689c313, 2019-01-14)"><sodipodi:namedview
     pagecolor="#ffffff"
     bordercolor="#666666"
     borderopacity="1"
     objecttolerance="10"
     gridtolerance="10"
     guidetolerance="10"
     inkscape:pageopacity="0"
     inkscape:pageshadow="2"
     inkscape:window-width="1920"
     inkscape:window-height="1017"
     id="namedview921"
     showgrid="false"
     inkscape:zoom="0.49968879"
     inkscape:cx="786.76725"
     inkscape:cy="411.15648"
     inkscape:window-x="1912"
     inkscape:window-y="-8"
     inkscape:window-maximized="1"
     inkscape:current-layer="svg919" /><metadata
     id="metadata869"><rdf:RDF><cc:Work
         rdf:about=""><dc:format>image/svg+xml</dc:format><dc:type
           rdf:resource="http://purl.org/dc/dcmitype/StillImage" /><dc:title></dc:title></cc:Work></rdf:RDF></metadata><defs
     id="defs891"><linearGradient
       id="linearGradient1083"
       x1="3.2035999"
       x2="399.17999"
       y1="323.31"
       y2="74.404999"
       gradientUnits="userSpaceOnUse"><stop
         stop-color="#137cb0"
         offset="0"
         id="stop871" /><stop
         stop-color="#093977"
         offset="1"
         id="stop873" /></linearGradient><linearGradient
       id="linearGradient1085"
       x1="3.2035999"
       x2="399.17999"
       y1="153.31"
       y2="-95.595001"
       gradientUnits="userSpaceOnUse"><stop
         stop-color="#137cb0"
         offset="0"
         id="stop876" /><stop
         stop-color="#093977"
         offset="1"
         id="stop878" /></linearGradient><linearGradient
       id="linearGradient1087"
       x1="173.2"
       x2="569.17999"
       y1="153.31"
       y2="-95.595001"
       gradientUnits="userSpaceOnUse"><stop
         stop-color="#137cb0"
         offset="0"
         id="stop881" /><stop
         stop-color="#093977"
         offset="1"
         id="stop883" /></linearGradient><linearGradient
       id="linearGradient1089"
       x1="-166.8"
       x2="229.17999"
       y1="153.31"
       y2="-95.595001"
       gradientUnits="userSpaceOnUse"><stop
         stop-color="#137cb0"
         offset="0"
         id="stop886" /><stop
         stop-color="#093977"
         offset="1"
         id="stop888" /></linearGradient><linearGradient
       inkscape:collect="always"
       xlink:href="#linearGradient1083"
       id="linearGradient923"
       gradientUnits="userSpaceOnUse"
       x1="3.2035999"
       y1="323.31"
       x2="399.17999"
       y2="74.404999" /><linearGradient
       inkscape:collect="always"
       xlink:href="#linearGradient1083"
       id="linearGradient925"
       gradientUnits="userSpaceOnUse"
       x1="3.2035999"
       y1="323.31"
       x2="399.17999"
       y2="74.404999" /><linearGradient
       inkscape:collect="always"
       xlink:href="#linearGradient1083"
       id="linearGradient927"
       gradientUnits="userSpaceOnUse"
       x1="3.2035999"
       y1="323.31"
       x2="399.17999"
       y2="74.404999" /><linearGradient
       inkscape:collect="always"
       xlink:href="#linearGradient1085"
       id="linearGradient929"
       gradientUnits="userSpaceOnUse"
       x1="3.2035999"
       y1="153.31"
       x2="399.17999"
       y2="-95.595001" /><linearGradient
       inkscape:collect="always"
       xlink:href="#linearGradient1085"
       id="linearGradient931"
       gradientUnits="userSpaceOnUse"
       x1="3.2035999"
       y1="153.31"
       x2="399.17999"
       y2="-95.595001" /><linearGradient
       inkscape:collect="always"
       xlink:href="#linearGradient1085"
       id="linearGradient933"
       gradientUnits="userSpaceOnUse"
       x1="3.2035999"
       y1="153.31"
       x2="399.17999"
       y2="-95.595001" /><linearGradient
       inkscape:collect="always"
       xlink:href="#linearGradient1087"
       id="linearGradient935"
       gradientUnits="userSpaceOnUse"
       x1="173.2"
       y1="153.31"
       x2="569.17999"
       y2="-95.595001" /><linearGradient
       inkscape:collect="always"
       xlink:href="#linearGradient1087"
       id="linearGradient937"
       gradientUnits="userSpaceOnUse"
       x1="173.2"
       y1="153.31"
       x2="569.17999"
       y2="-95.595001" /><linearGradient
       inkscape:collect="always"
       xlink:href="#linearGradient1087"
       id="linearGradient939"
       gradientUnits="userSpaceOnUse"
       x1="173.2"
       y1="153.31"
       x2="569.17999"
       y2="-95.595001" /><linearGradient
       inkscape:collect="always"
       xlink:href="#linearGradient1089"
       id="linearGradient941"
       gradientUnits="userSpaceOnUse"
       x1="-166.8"
       y1="153.31"
       x2="229.17999"
       y2="-95.595001" /><linearGradient
       inkscape:collect="always"
       xlink:href="#linearGradient1089"
       id="linearGradient943"
       gradientUnits="userSpaceOnUse"
       x1="-166.8"
       y1="153.31"
       x2="229.17999"
       y2="-95.595001" /><linearGradient
       inkscape:collect="always"
       xlink:href="#linearGradient1089"
       id="linearGradient945"
       gradientUnits="userSpaceOnUse"
       x1="-166.8"
       y1="153.31"
       x2="229.17999"
       y2="-95.595001" /></defs><g
     id="g917"
     transform="translate(295.6527,139.76885)"><g
       transform="translate(66.8,105.2)"
       id="g897"
       style="fill:url(#linearGradient927)"><path
         class=""
         d="m 178.2,89.711 c 0,0 46.614,-13.823 53.519,-49.62 0,0 15.595,49.168 58.481,48.911 0,0 -55.291,8.506 -58.481,64.506 0,10e-4 2.835,-57.417 -53.519,-63.797 z"
         data-original="#ffda8f"
         id="path893"
         inkscape:connector-curvature="0"
         style="fill:url(#linearGradient923)" /><path
         class=""
         d="m 173.2,101.8 c 27.57,0 50,22.43 50,50 0,5.522 4.477,10 10,10 5.523,0 10,-4.478 10,-10 0,-27.57 22.43,-50 50,-50 5.523,0 10,-4.478 10,-10 0,-5.522 -4.477,-10 -10,-10 -27.57,0 -50,-22.43 -50,-50 0,-5.522 -4.477,-10 -10,-10 -5.523,0 -10,4.478 -10,10 0,27.57 -22.43,50 -50,50 -5.523,0 -10,4.478 -10,10 0,5.522 4.477,10 10,10 z m 60,-33.976 c 5.913,9.81 14.166,18.064 23.975,23.976 -9.81,5.912 -18.063,14.166 -23.975,23.976 -5.913,-9.81 -14.166,-18.064 -23.975,-23.976 9.809,-5.912 18.062,-14.166 23.975,-23.976 z"
         data-original="#000000"
         id="path895"
         inkscape:connector-curvature="0"
         style="fill:url(#linearGradient925)" /></g><g
       transform="translate(66.8,275.2)"
       id="g903"
       style="fill:url(#linearGradient933)"><path
         class=""
         d="m 178.2,89.711 c 0,0 46.614,-13.823 53.519,-49.62 0,0 15.595,49.168 58.481,48.911 0,0 -55.291,8.506 -58.481,64.506 0,10e-4 2.835,-57.417 -53.519,-63.797 z"
         data-original="#ffda8f"
         id="path899"
         inkscape:connector-curvature="0"
         style="fill:url(#linearGradient929)" /><path
         class=""
         d="m 173.2,101.8 c 27.57,0 50,22.43 50,50 0,5.522 4.477,10 10,10 5.523,0 10,-4.478 10,-10 0,-27.57 22.43,-50 50,-50 5.523,0 10,-4.478 10,-10 0,-5.522 -4.477,-10 -10,-10 -27.57,0 -50,-22.43 -50,-50 0,-5.522 -4.477,-10 -10,-10 -5.523,0 -10,4.478 -10,10 0,27.57 -22.43,50 -50,50 -5.523,0 -10,4.478 -10,10 0,5.522 4.477,10 10,10 z m 60,-33.976 c 5.913,9.81 14.166,18.064 23.975,23.976 -9.81,5.912 -18.063,14.166 -23.975,23.976 -5.913,-9.81 -14.166,-18.064 -23.975,-23.976 9.809,-5.912 18.062,-14.166 23.975,-23.976 z"
         data-original="#000000"
         id="path901"
         inkscape:connector-curvature="0"
         style="fill:url(#linearGradient931)" /></g><g
       transform="translate(-103.2,275.2)"
       id="g909"
       style="fill:url(#linearGradient939)"><path
         class=""
         d="m 178.2,89.711 c 0,0 46.614,-13.823 53.519,-49.62 0,0 15.595,49.168 58.481,48.911 0,0 -55.291,8.506 -58.481,64.506 0,10e-4 2.835,-57.417 -53.519,-63.797 z"
         data-original="#ffda8f"
         id="path905"
         inkscape:connector-curvature="0"
         style="fill:url(#linearGradient935)" /><path
         class=""
         d="m 173.2,101.8 c 27.57,0 50,22.43 50,50 0,5.522 4.477,10 10,10 5.523,0 10,-4.478 10,-10 0,-27.57 22.43,-50 50,-50 5.523,0 10,-4.478 10,-10 0,-5.522 -4.477,-10 -10,-10 -27.57,0 -50,-22.43 -50,-50 0,-5.522 -4.477,-10 -10,-10 -5.523,0 -10,4.478 -10,10 0,27.57 -22.43,50 -50,50 -5.523,0 -10,4.478 -10,10 0,5.522 4.477,10 10,10 z m 60,-33.976 c 5.913,9.81 14.166,18.064 23.975,23.976 -9.81,5.912 -18.063,14.166 -23.975,23.976 -5.913,-9.81 -14.166,-18.064 -23.975,-23.976 9.809,-5.912 18.062,-14.166 23.975,-23.976 z"
         data-original="#000000"
         id="path907"
         inkscape:connector-curvature="0"
         style="fill:url(#linearGradient937)" /></g><g
       transform="translate(236.8,275.2)"
       id="g915"
       style="fill:url(#linearGradient945)"><path
         class=""
         d="m 178.2,89.711 c 0,0 46.614,-13.823 53.519,-49.62 0,0 15.595,49.168 58.481,48.911 0,0 -55.291,8.506 -58.481,64.506 0,10e-4 2.835,-57.417 -53.519,-63.797 z"
         data-original="#ffda8f"
         id="path911"
         inkscape:connector-curvature="0"
         style="fill:url(#linearGradient941)" /><path
         class=""
         d="m 173.2,101.8 c 27.57,0 50,22.43 50,50 0,5.522 4.477,10 10,10 5.523,0 10,-4.478 10,-10 0,-27.57 22.43,-50 50,-50 5.523,0 10,-4.478 10,-10 0,-5.522 -4.477,-10 -10,-10 -27.57,0 -50,-22.43 -50,-50 0,-5.522 -4.477,-10 -10,-10 -5.523,0 -10,4.478 -10,10 0,27.57 -22.43,50 -50,50 -5.523,0 -10,4.478 -10,10 0,5.522 4.477,10 10,10 z m 60,-33.976 c 5.913,9.81 14.166,18.064 23.975,23.976 -9.81,5.912 -18.063,14.166 -23.975,23.976 -5.913,-9.81 -14.166,-18.064 -23.975,-23.976 9.809,-5.912 18.062,-14.166 23.975,-23.976 z"
         data-original="#000000"
         id="path913"
         inkscape:connector-curvature="0"
         style="fill:url(#linearGradient943)" /></g></g><text
     xml:space="preserve"
     style="font-style:normal;font-weight:normal;font-size:40px;line-height:1.25;font-family:sans-serif;letter-spacing:0px;word-spacing:0px;fill:#000000;fill-opacity:1;stroke:none"
     x="57.85582"
     y="814.23804"
     id="text949"><tspan
       sodipodi:role="line"
       id="tspan947"
       x="57.85582"
       y="814.23804"
       style="font-size:192px">CONTRACT</tspan></text>
</svg>