<?xml version="1.0" encoding="UTF-8"?>
<svg class="" width="600" height="600" version="1.1" viewBox="0 0 600 600" xml:space="preserve" xmlns="http://www.w3.org/2000/svg" xmlns:cc="http://creativecommons.org/ns#" xmlns:dc="http://purl.org/dc/elements/1.1/" xmlns:rdf="http://www.w3.org/1999/02/22-rdf-syntax-ns#" xmlns:xlink="http://www.w3.org/1999/xlink"><metadata><rdf:RDF><cc:Work rdf:about=""><dc:format>image/svg+xml</dc:format><dc:type rdf:resource="http://purl.org/dc/dcmitype/StillImage"/><dc:title/></cc:Work></rdf:RDF></metadata><defs><linearGradient id="linearGradient1083" x1="3.2036" x2="399.18" y1="323.31" y2="74.405" gradientUnits="userSpaceOnUse"><stop stop-color="#137cb0" offset="0"/><stop stop-color="#093977" offset="1"/></linearGradient><linearGradient id="linearGradient1085" x1="3.2036" x2="399.18" y1="153.31" y2="-95.595" gradientUnits="userSpaceOnUse"><stop stop-color="#137cb0" offset="0"/><stop stop-color="#093977" offset="1"/></linearGradient><linearGradient id="linearGradient1087" x1="173.2" x2="569.18" y1="153.31" y2="-95.595" gradientUnits="userSpaceOnUse"><stop stop-color="#137cb0" offset="0"/><stop stop-color="#093977" offset="1"/></linearGradient><linearGradient id="linearGradient1089" x1="-166.8" x2="229.18" y1="153.31" y2="-95.595" gradientUnits="userSpaceOnUse"><stop stop-color="#137cb0" offset="0"/><stop stop-color="#093977" offset="1"/></linearGradient></defs><g><g transform="translate(66.8,105.2)" fill="url(#linearGradient1083)"><path class="" d="m178.2 89.711s46.614-13.823 53.519-49.62c0 0 15.595 49.168 58.481 48.911 0 0-55.291 8.506-58.481 64.506 0 1e-3 2.835-57.417-53.519-63.797z" data-original="#ffda8f"/><path class="" d="m173.2 101.8c27.57 0 50 22.43 50 50 0 5.522 4.477 10 10 10s10-4.478 10-10c0-27.57 22.43-50 50-50 5.523 0 10-4.478 10-10s-4.477-10-10-10c-27.57 0-50-22.43-50-50 0-5.522-4.477-10-10-10s-10 4.478-10 10c0 27.57-22.43 50-50 50-5.523 0-10 4.478-10 10s4.477 10 10 10zm60-33.976c5.913 9.81 14.166 18.064 23.975 23.976-9.81 5.912-18.063 14.166-23.975 23.976-5.913-9.81-14.166-18.064-23.975-23.976 9.809-5.912 18.062-14.166 23.975-23.976z" data-original="#000000"/></g><g transform="translate(66.8,275.2)" fill="url(#linearGradient1085)"><path class="" d="m178.2 89.711s46.614-13.823 53.519-49.62c0 0 15.595 49.168 58.481 48.911 0 0-55.291 8.506-58.481 64.506 0 1e-3 2.835-57.417-53.519-63.797z" data-original="#ffda8f"/><path class="" d="m173.2 101.8c27.57 0 50 22.43 50 50 0 5.522 4.477 10 10 10s10-4.478 10-10c0-27.57 22.43-50 50-50 5.523 0 10-4.478 10-10s-4.477-10-10-10c-27.57 0-50-22.43-50-50 0-5.522-4.477-10-10-10s-10 4.478-10 10c0 27.57-22.43 50-50 50-5.523 0-10 4.478-10 10s4.477 10 10 10zm60-33.976c5.913 9.81 14.166 18.064 23.975 23.976-9.81 5.912-18.063 14.166-23.975 23.976-5.913-9.81-14.166-18.064-23.975-23.976 9.809-5.912 18.062-14.166 23.975-23.976z" data-original="#000000"/></g><g transform="translate(-103.2,275.2)" fill="url(#linearGradient1087)"><path class="" d="m178.2 89.711s46.614-13.823 53.519-49.62c0 0 15.595 49.168 58.481 48.911 0 0-55.291 8.506-58.481 64.506 0 1e-3 2.835-57.417-53.519-63.797z" data-original="#ffda8f"/><path class="" d="m173.2 101.8c27.57 0 50 22.43 50 50 0 5.522 4.477 10 10 10s10-4.478 10-10c0-27.57 22.43-50 50-50 5.523 0 10-4.478 10-10s-4.477-10-10-10c-27.57 0-50-22.43-50-50 0-5.522-4.477-10-10-10s-10 4.478-10 10c0 27.57-22.43 50-50 50-5.523 0-10 4.478-10 10s4.477 10 10 10zm60-33.976c5.913 9.81 14.166 18.064 23.975 23.976-9.81 5.912-18.063 14.166-23.975 23.976-5.913-9.81-14.166-18.064-23.975-23.976 9.809-5.912 18.062-14.166 23.975-23.976z" data-original="#000000"/></g><g transform="translate(236.8,275.2)" fill="url(#linearGradient1089)"><path class="" d="m178.2 89.711s46.614-13.823 53.519-49.62c0 0 15.595 49.168 58.481 48.911 0 0-55.291 8.506-58.481 64.506 0 1e-3 2.835-57.417-53.519-63.797z" data-original="#ffda8f"/><path class="" d="m173.2 101.8c27.57 0 50 22.43 50 50 0 5.522 4.477 10 10 10s10-4.478 10-10c0-27.57 22.43-50 50-50 5.523 0 10-4.478 10-10s-4.477-10-10-10c-27.57 0-50-22.43-50-50 0-5.522-4.477-10-10-10s-10 4.478-10 10c0 27.57-22.43 50-50 50-5.523 0-10 4.478-10 10s4.477 10 10 10zm60-33.976c5.913 9.81 14.166 18.064 23.975 23.976-9.81 5.912-18.063 14.166-23.975 23.976-5.913-9.81-14.166-18.064-23.975-23.976 9.809-5.912 18.062-14.166 23.975-23.976z" data-original="#000000"/></g></g></svg>
